<svg xmlns="http://www.w3.org/2000/svg" viewBox="0 0 180 140"><defs><linearGradient id="shell" x1="22" y1="4" x2="150" y2="132" gradientUnits="userSpaceOnUse"><stop offset="0" stop-color="#c6cbd0"/><stop offset=".10" stop-color="#848e98"/><stop offset=".27" stop-color="#4d5863"/><stop offset=".52" stop-color="#2c3640"/><stop offset=".76" stop-color="#151c23"/><stop offset="1" stop-color="#090d11"/></linearGradient><radialGradient id="shine" cx="30%" cy="18%" r="65%"><stop offset="0" stop-color="#fff" stop-opacity=".92"/><stop offset=".12" stop-color="#fff" stop-opacity=".48"/><stop offset=".30" stop-color="#f2d072" stop-opacity=".22"/><stop offset=".7" stop-color="#000" stop-opacity="0"/></radialGradient><linearGradient id="lower" x1="0" y1="0" x2="1" y2="1"><stop stop-color="#3f4a54"/><stop offset="1" stop-color="#0a0f14"/></linearGradient><filter id="shadow" x="-30%" y="-30%" width="160%" height="160%"><feDropShadow dx="0" dy="7" stdDeviation="4" flood-color="#000" flood-opacity=".78"/><feDropShadow dx="0" dy="0" stdDeviation="3" flood-color="#d6aa42" flood-opacity=".28"/></filter></defs><g filter="url(#shadow)"><path d="M15 100V61C15 22 44 3 90 3c41 0 67 19 73 54l-25 9-23-21v57H84l-16 30H15Z" fill="url(#shell)"/><path d="M15 100V61C15 22 44 3 90 3c41 0 67 19 73 54" fill="url(#shine)"/><path d="M26 95h62l-13 27H44c-12-5-17-14-18-27Z" fill="url(#lower)"/><path d="M105 46c13 4 21 14 24 27l-18 24H82V61Z" fill="#0b1016"/><path d="M43 25c20-13 51-16 77-7" fill="none" stroke="#fff" stroke-opacity=".34" stroke-width="3" stroke-linecap="round"/><ellipse cx="90" cy="71" rx="12" ry="10" fill="#10171d" stroke="#9da7af" stroke-width="1.8"/><ellipse cx="90" cy="71" rx="4" ry="3.2" fill="#7c858d"/><path d="M116 65h45v13h-30l-10 28H90" fill="none" stroke="#dfe4e7" stroke-width="3.6" stroke-linecap="round" stroke-linejoin="round"/><path d="M146 57v58M159 69v38M130 79h42" fill="none" stroke="#aeb7bd" stroke-width="3.1" stroke-linecap="round"/><path d="M18 101h65" fill="none" stroke="#c99a34" stroke-width="2"/></g></svg>